<mxfile host="app.diagrams.net" agent="Mozilla/5.0 (Windows NT 10.0; Win64; x64) AppleWebKit/537.36 (KHTML, like Gecko) Chrome/136.0.0.0 Safari/537.36" version="26.2.14">
  <diagram id="C5RBs43oDa-KdzZeNtuy" name="Page-1">
    <mxGraphModel dx="1425" dy="806" grid="1" gridSize="10" guides="1" tooltips="1" connect="1" arrows="1" fold="1" page="1" pageScale="1" pageWidth="827" pageHeight="1169" math="0" shadow="0">
      <root>
        <mxCell id="WIyWlLk6GJQsqaUBKTNV-0" />
        <mxCell id="WIyWlLk6GJQsqaUBKTNV-1" parent="WIyWlLk6GJQsqaUBKTNV-0" />
        <mxCell id="fFK30eaZQCWIY_1zLSY_-6" style="edgeStyle=orthogonalEdgeStyle;rounded=0;orthogonalLoop=1;jettySize=auto;html=1;" edge="1" parent="WIyWlLk6GJQsqaUBKTNV-1" source="fFK30eaZQCWIY_1zLSY_-0" target="fFK30eaZQCWIY_1zLSY_-5">
          <mxGeometry relative="1" as="geometry" />
        </mxCell>
        <mxCell id="fFK30eaZQCWIY_1zLSY_-0" value="Sends captured image" style="rounded=1;whiteSpace=wrap;html=1;fontSize=12;glass=0;strokeWidth=1;shadow=0;" vertex="1" parent="WIyWlLk6GJQsqaUBKTNV-1">
          <mxGeometry x="190" y="385" width="90" height="40" as="geometry" />
        </mxCell>
        <mxCell id="fFK30eaZQCWIY_1zLSY_-3" style="edgeStyle=orthogonalEdgeStyle;rounded=0;orthogonalLoop=1;jettySize=auto;html=1;" edge="1" parent="WIyWlLk6GJQsqaUBKTNV-1" source="fFK30eaZQCWIY_1zLSY_-2" target="fFK30eaZQCWIY_1zLSY_-0">
          <mxGeometry relative="1" as="geometry" />
        </mxCell>
        <mxCell id="fFK30eaZQCWIY_1zLSY_-2" value="Device" style="sketch=0;aspect=fixed;pointerEvents=1;shadow=0;dashed=0;html=1;strokeColor=none;labelPosition=center;verticalLabelPosition=bottom;verticalAlign=top;align=center;fillColor=#00188D;shape=mxgraph.mscae.enterprise.device" vertex="1" parent="WIyWlLk6GJQsqaUBKTNV-1">
          <mxGeometry x="50" y="380" width="96.15" height="50" as="geometry" />
        </mxCell>
        <mxCell id="fFK30eaZQCWIY_1zLSY_-8" style="edgeStyle=orthogonalEdgeStyle;rounded=0;orthogonalLoop=1;jettySize=auto;html=1;" edge="1" parent="WIyWlLk6GJQsqaUBKTNV-1" source="fFK30eaZQCWIY_1zLSY_-5" target="fFK30eaZQCWIY_1zLSY_-7">
          <mxGeometry relative="1" as="geometry" />
        </mxCell>
        <mxCell id="fFK30eaZQCWIY_1zLSY_-35" style="edgeStyle=orthogonalEdgeStyle;rounded=0;orthogonalLoop=1;jettySize=auto;html=1;entryX=0;entryY=0.5;entryDx=0;entryDy=0;" edge="1" parent="WIyWlLk6GJQsqaUBKTNV-1" source="fFK30eaZQCWIY_1zLSY_-5" target="fFK30eaZQCWIY_1zLSY_-34">
          <mxGeometry relative="1" as="geometry">
            <Array as="points">
              <mxPoint x="390" y="570" />
            </Array>
          </mxGeometry>
        </mxCell>
        <mxCell id="fFK30eaZQCWIY_1zLSY_-5" value="BeeH&lt;span style=&quot;background-color: transparent; color: light-dark(rgb(255, 255, 255), rgb(18, 18, 18));&quot;&gt;ive&lt;/span&gt;" style="html=1;whiteSpace=wrap;strokeColor=none;fillColor=#FFAE06;labelPosition=center;verticalLabelPosition=middle;verticalAlign=top;align=center;fontSize=12;outlineConnect=0;spacingTop=-6;fontColor=#FFFFFF;sketch=0;shape=mxgraph.sitemap.cloud;" vertex="1" parent="WIyWlLk6GJQsqaUBKTNV-1">
          <mxGeometry x="330" y="370" width="120" height="70" as="geometry" />
        </mxCell>
        <mxCell id="fFK30eaZQCWIY_1zLSY_-11" style="edgeStyle=orthogonalEdgeStyle;rounded=0;orthogonalLoop=1;jettySize=auto;html=1;" edge="1" parent="WIyWlLk6GJQsqaUBKTNV-1" source="fFK30eaZQCWIY_1zLSY_-7" target="fFK30eaZQCWIY_1zLSY_-10">
          <mxGeometry relative="1" as="geometry" />
        </mxCell>
        <mxCell id="fFK30eaZQCWIY_1zLSY_-7" value="" style="image;aspect=fixed;html=1;points=[];align=center;fontSize=12;image=img/lib/azure2/ai_machine_learning/Batch_AI.svg;" vertex="1" parent="WIyWlLk6GJQsqaUBKTNV-1">
          <mxGeometry x="522" y="302" width="48" height="68" as="geometry" />
        </mxCell>
        <mxCell id="fFK30eaZQCWIY_1zLSY_-9" value="BeeHive AI&amp;nbsp;" style="text;html=1;align=center;verticalAlign=middle;whiteSpace=wrap;rounded=0;" vertex="1" parent="WIyWlLk6GJQsqaUBKTNV-1">
          <mxGeometry x="516" y="270" width="60" height="30" as="geometry" />
        </mxCell>
        <mxCell id="fFK30eaZQCWIY_1zLSY_-10" value="" style="sketch=0;outlineConnect=0;fontColor=#232F3E;gradientColor=none;fillColor=#01A88D;strokeColor=none;dashed=0;verticalLabelPosition=bottom;verticalAlign=top;align=center;html=1;fontSize=12;fontStyle=0;aspect=fixed;pointerEvents=1;shape=mxgraph.aws4.sagemaker_model;" vertex="1" parent="WIyWlLk6GJQsqaUBKTNV-1">
          <mxGeometry x="590" y="140" width="60" height="60" as="geometry" />
        </mxCell>
        <mxCell id="fFK30eaZQCWIY_1zLSY_-12" value="Detection Model" style="text;html=1;align=center;verticalAlign=middle;whiteSpace=wrap;rounded=0;" vertex="1" parent="WIyWlLk6GJQsqaUBKTNV-1">
          <mxGeometry x="660" y="155" width="60" height="30" as="geometry" />
        </mxCell>
        <mxCell id="fFK30eaZQCWIY_1zLSY_-20" style="edgeStyle=orthogonalEdgeStyle;rounded=0;orthogonalLoop=1;jettySize=auto;html=1;entryX=0.5;entryY=1;entryDx=0;entryDy=0;entryPerimeter=0;" edge="1" parent="WIyWlLk6GJQsqaUBKTNV-1" source="fFK30eaZQCWIY_1zLSY_-30" target="fFK30eaZQCWIY_1zLSY_-10">
          <mxGeometry relative="1" as="geometry">
            <mxPoint x="335" y="240.0000000000001" as="targetPoint" />
            <Array as="points">
              <mxPoint x="580" y="215" />
              <mxPoint x="580" y="200" />
            </Array>
          </mxGeometry>
        </mxCell>
        <mxCell id="fFK30eaZQCWIY_1zLSY_-31" style="edgeStyle=orthogonalEdgeStyle;rounded=0;orthogonalLoop=1;jettySize=auto;html=1;entryX=0;entryY=0.5;entryDx=0;entryDy=0;" edge="1" parent="WIyWlLk6GJQsqaUBKTNV-1" source="fFK30eaZQCWIY_1zLSY_-13" target="fFK30eaZQCWIY_1zLSY_-30">
          <mxGeometry relative="1" as="geometry">
            <Array as="points">
              <mxPoint x="335" y="215" />
            </Array>
          </mxGeometry>
        </mxCell>
        <mxCell id="fFK30eaZQCWIY_1zLSY_-13" value="Reinforced Learning" style="whiteSpace=wrap;html=1;aspect=fixed;" vertex="1" parent="WIyWlLk6GJQsqaUBKTNV-1">
          <mxGeometry x="300" y="100" width="70" height="70" as="geometry" />
        </mxCell>
        <mxCell id="fFK30eaZQCWIY_1zLSY_-14" style="edgeStyle=orthogonalEdgeStyle;rounded=0;orthogonalLoop=1;jettySize=auto;html=1;entryX=0.988;entryY=0.574;entryDx=0;entryDy=0;entryPerimeter=0;" edge="1" parent="WIyWlLk6GJQsqaUBKTNV-1" source="fFK30eaZQCWIY_1zLSY_-16" target="fFK30eaZQCWIY_1zLSY_-13">
          <mxGeometry relative="1" as="geometry" />
        </mxCell>
        <mxCell id="fFK30eaZQCWIY_1zLSY_-15" value="" style="edgeStyle=orthogonalEdgeStyle;rounded=0;orthogonalLoop=1;jettySize=auto;html=1;entryX=0.988;entryY=0.574;entryDx=0;entryDy=0;entryPerimeter=0;" edge="1" parent="WIyWlLk6GJQsqaUBKTNV-1" source="fFK30eaZQCWIY_1zLSY_-10" target="fFK30eaZQCWIY_1zLSY_-16">
          <mxGeometry relative="1" as="geometry">
            <mxPoint x="590" y="170" as="sourcePoint" />
            <mxPoint x="389" y="140" as="targetPoint" />
            <Array as="points">
              <mxPoint x="620" y="107" />
            </Array>
          </mxGeometry>
        </mxCell>
        <mxCell id="fFK30eaZQCWIY_1zLSY_-16" value="Feed new image result" style="text;html=1;align=center;verticalAlign=middle;whiteSpace=wrap;rounded=0;" vertex="1" parent="WIyWlLk6GJQsqaUBKTNV-1">
          <mxGeometry x="456" y="90" width="60" height="30" as="geometry" />
        </mxCell>
        <mxCell id="fFK30eaZQCWIY_1zLSY_-30" value="Return new weights for model" style="text;html=1;align=center;verticalAlign=middle;whiteSpace=wrap;rounded=0;" vertex="1" parent="WIyWlLk6GJQsqaUBKTNV-1">
          <mxGeometry x="424" y="200" width="66" height="30" as="geometry" />
        </mxCell>
        <mxCell id="fFK30eaZQCWIY_1zLSY_-33" style="edgeStyle=orthogonalEdgeStyle;rounded=0;orthogonalLoop=1;jettySize=auto;html=1;" edge="1" parent="WIyWlLk6GJQsqaUBKTNV-1" source="fFK30eaZQCWIY_1zLSY_-7" target="fFK30eaZQCWIY_1zLSY_-5">
          <mxGeometry relative="1" as="geometry">
            <mxPoint x="460" y="430" as="targetPoint" />
            <Array as="points">
              <mxPoint x="546" y="430" />
            </Array>
          </mxGeometry>
        </mxCell>
        <mxCell id="fFK30eaZQCWIY_1zLSY_-34" value="Droppie Server" style="image;html=1;image=img/lib/clip_art/computers/Server_128x128.png" vertex="1" parent="WIyWlLk6GJQsqaUBKTNV-1">
          <mxGeometry x="522" y="530" width="80" height="80" as="geometry" />
        </mxCell>
      </root>
    </mxGraphModel>
  </diagram>
</mxfile>
